<svg width="56" height="56" viewBox="0 0 56 56" fill="none" xmlns="http://www.w3.org/2000/svg">
<rect x="4" y="4" width="48" height="48" rx="24" fill="#FAAA3F" fill-opacity="0.09"/>
<rect x="4" y="4" width="48" height="48" rx="24" stroke="#FAAA3F" stroke-opacity="0.12" stroke-width="8"/>
<path d="M19 19C18.5875 19 18.25 19.3375 18.25 19.75V31.75L25.75 31.5999V32.5H16.75V33.25L18.2427 34.2476C18.7377 34.5738 19.315 34.75 19.9075 34.75H25.75V37C25.75 37.6214 26.2536 38.125 26.875 38.125H31.75C32.3714 38.125 32.875 37.6214 32.875 37V36.625H37.75C38.3725 36.625 38.875 36.1225 38.875 35.5V24.625C38.875 24.0025 38.3725 23.5 37.75 23.5H37V19.75C37 19.3375 36.6625 19 36.25 19H19ZM19.75 20.5H35.5V23.5H29.875C29.2525 23.5 28.75 24.0025 28.75 24.625V28H26.875C26.2536 28 25.75 28.5036 25.75 29.125V30.25H19.75V20.5ZM30.25 25H33.25V25.1875C33.25 25.498 33.502 25.75 33.8125 25.75C34.123 25.75 34.375 25.498 34.375 25.1875V25H37.375V35.125H32.875V29.125C32.875 28.5036 32.3714 28 31.75 28H30.25V25ZM27.25 29.5H28.75V29.6875C28.75 29.998 29.002 30.25 29.3125 30.25C29.623 30.25 29.875 29.998 29.875 29.6875V29.5H31.375V36.625H27.25V29.5Z" fill="url(#paint0_linear_69_152)"/>
<defs>
<linearGradient id="paint0_linear_69_152" x1="16.75" y1="30.7692" x2="38.875" y2="30.7692" gradientUnits="userSpaceOnUse">
<stop stop-color="#F9A93F"/>
<stop offset="1" stop-color="#A86B28"/>
</linearGradient>
</defs>
</svg>
