<svg width="56" height="56" viewBox="0 0 56 56" fill="none" xmlns="http://www.w3.org/2000/svg">
<rect x="4" y="4" width="48" height="48" rx="24" fill="#FAAA3F" fill-opacity="0.09"/>
<rect x="4" y="4" width="48" height="48" rx="24" stroke="#FAAA3F" stroke-opacity="0.12" stroke-width="8"/>
<path d="M24 30C24 30 25.5 32 28 32C30.5 32 32 30 32 30M25 25H25.01M31 25H31.01M38 28C38 33.5228 33.5228 38 28 38C22.4772 38 18 33.5228 18 28C18 22.4772 22.4772 18 28 18C33.5228 18 38 22.4772 38 28Z" stroke="url(#paint0_linear_69_159)" stroke-width="2" stroke-linecap="round" stroke-linejoin="round"/>
<defs>
<linearGradient id="paint0_linear_69_159" x1="18" y1="30.3077" x2="38" y2="30.3077" gradientUnits="userSpaceOnUse">
<stop stop-color="#F9A93F"/>
<stop offset="1" stop-color="#A86B28"/>
</linearGradient>
</defs>
</svg>
