<svg width="76" height="76" viewBox="0 0 76 76" fill="none" xmlns="http://www.w3.org/2000/svg">
<rect width="76" height="76" rx="38" fill="white"/>
<g clip-path="url(#clip0_222_42)">
<path d="M35.9623 45.8428C35.9623 45.8428 35.9685 45.8407 35.9768 45.8386C35.9582 45.8304 35.9396 45.8242 35.921 45.8159L35.9623 45.8428Z" fill="url(#paint0_linear_222_42)"/>
<path d="M27.8427 34.9821L26.4092 29.9648L23.5071 34.4429L24.9199 33.8646C23.9698 56.5897 10.6098 51.5808 10.6098 51.5808C25.8494 58.2814 26.7335 39.3651 26.6467 34.0464L27.8427 34.9821Z" fill="url(#paint1_linear_222_42)"/>
<path d="M53.7198 29.6241L53.5525 29.3535L63.4382 24.1421L63.6035 24.4127L53.7198 29.6241Z" fill="url(#paint2_linear_222_42)"/>
<path d="M63.463 25.6232C64.1874 25.6232 64.7747 25.036 64.7747 24.3116C64.7747 23.5872 64.1874 23 63.463 23C62.7387 23 62.1514 23.5872 62.1514 24.3116C62.1514 25.036 62.7387 25.6232 63.463 25.6232Z" fill="url(#paint3_linear_222_42)"/>
<path d="M53.6124 30.8056C54.3368 30.8056 54.9241 30.2184 54.9241 29.494C54.9241 28.7696 54.3368 28.1824 53.6124 28.1824C52.888 28.1824 52.3008 28.7696 52.3008 29.494C52.3008 30.2184 52.888 30.8056 53.6124 30.8056Z" fill="url(#paint4_linear_222_42)"/>
<path d="M58.5222 28.2795C59.2466 28.2795 59.8339 27.6923 59.8339 26.9679C59.8339 26.2435 59.2466 25.6562 58.5222 25.6562C57.7979 25.6562 57.2106 26.2435 57.2106 26.9679C57.2106 27.6923 57.7979 28.2795 58.5222 28.2795Z" fill="url(#paint5_linear_222_42)"/>
<path d="M55.4776 42.2157V33.1727C55.4776 32.9724 55.3165 32.8113 55.1162 32.8113H52.1108C51.9104 32.8113 51.7493 32.9724 51.7493 33.1727V42.2777C53.0238 42.2756 54.2693 42.2529 55.4776 42.2157Z" fill="url(#paint6_linear_222_42)"/>
<path d="M60.3854 41.9931V30.7338C60.3854 30.5334 60.2243 30.3723 60.0239 30.3723H57.0185C56.8182 30.3723 56.6571 30.5334 56.6571 30.7338V42.1872C57.442 42.1563 60.0198 42.0179 60.3854 41.9931Z" fill="url(#paint7_linear_222_42)"/>
<path d="M65.3592 41.6065L65.2952 36.3683V28.2177C65.2952 28.0173 65.1341 27.8562 64.9337 27.8562H61.9283C61.728 27.8562 61.5669 28.0173 61.5669 28.2177V41.937C62.9363 41.8379 64.2066 41.7263 65.353 41.6127C65.3551 41.6107 65.3571 41.6086 65.3592 41.6065Z" fill="url(#paint8_linear_222_42)"/>
<path d="M46.2612 37.3204C46.1021 34.7488 45.0673 32.3672 42.4729 31.0865C39.7815 29.7605 36.3651 30.3512 34.533 32.7989C35.5121 32.4374 36.2185 32.0987 37.1893 32.016C38.253 31.9252 39.3436 32.0883 40.3227 32.5221C41.655 33.1128 42.7642 34.2138 43.3074 35.5667C43.9477 37.1551 43.7887 38.9501 43.4376 40.6273C42.2106 46.4687 38.0981 52.2026 31.0422 52.7913C32.2526 52.8966 33.4754 53.0764 34.7147 52.9627C38.0589 52.6591 40.9858 50.8332 42.8592 48.3421C44.3485 46.3592 45.2676 43.9962 45.8439 41.5837C46.1703 40.208 46.3479 38.7353 46.2612 37.3204Z" fill="url(#paint9_linear_222_42)"/>
<path d="M61.2426 42.7091C60.8026 42.7319 60.3606 42.7546 59.9206 42.7773C58.0988 42.8703 56.2811 42.9673 54.4573 42.9942C54.2528 42.9983 54.0483 43.0004 53.8417 43.0024C51.0822 43.0293 48.3205 42.9529 45.5651 42.7752C45.0921 42.7443 44.6211 42.7091 44.1502 42.674C43.7495 42.643 43.3487 42.6079 42.948 42.5728C42.4977 42.5336 42.0454 42.4902 41.5951 42.4448C41.2832 42.4138 40.9734 42.3828 40.6635 42.3497C38.7963 42.1452 36.8671 41.8685 35.2848 40.8605C35.2311 40.8254 35.1795 40.7902 35.1258 40.7531C35.1113 40.7407 35.0989 40.7283 35.0845 40.7159L35.0535 40.689C35.0556 40.6911 35.039 40.6746 35.0556 40.6932L35.0473 40.6849L35.0308 40.6684L34.9626 40.6002C34.9275 40.5651 34.9007 40.5403 34.8635 40.5011C34.8284 40.4639 34.7932 40.4267 34.7581 40.3875C34.6197 40.2367 34.4917 40.0756 34.3739 39.9083C34.1405 39.5736 33.9402 39.2225 33.7873 38.8631C33.4713 38.1443 33.3164 37.411 33.2751 36.75C33.2317 36.087 33.3102 35.4963 33.4321 35.0191C33.5539 34.5399 33.7212 34.1722 33.8472 33.9264C33.9113 33.8025 33.965 33.7096 34.0001 33.6476C34.0373 33.5856 34.0558 33.5526 34.0558 33.5526L34.4008 33.0217L33.8741 33.377C33.8741 33.377 33.841 33.3997 33.7791 33.4452C33.715 33.4906 33.6241 33.5608 33.5105 33.66C33.2833 33.8583 32.9632 34.1805 32.6513 34.6721C32.5149 34.8849 32.3848 35.1327 32.265 35.4116C32.1101 35.773 31.9779 36.1841 31.8891 36.6468C31.7342 37.4606 31.7218 38.4231 31.9572 39.4456C32.0172 39.6996 32.0936 39.9578 32.1845 40.2181C32.2753 40.4784 32.3848 40.7386 32.517 40.9968C32.6471 41.255 32.7959 41.5111 32.9652 41.7631C33.0086 41.8251 33.052 41.8891 33.0974 41.949C33.1387 42.0089 33.1966 42.0812 33.2462 42.1432L33.3061 42.2196L33.3205 42.2382L33.3288 42.2485L33.3474 42.2692L33.3845 42.3126C33.4341 42.3704 33.4837 42.4282 33.5353 42.4861C33.9464 42.9425 34.4256 43.3619 34.9564 43.7233C35.2229 43.903 35.7909 44.2191 35.7909 44.2191L35.9231 44.3017C35.9417 44.3099 35.9603 44.3161 35.9789 44.3244C36.927 44.7003 37.9391 44.9627 38.9739 45.1527C39.3498 45.2208 39.7258 45.2807 40.1058 45.3345C40.6677 45.4129 41.2316 45.4749 41.7893 45.5286C42.6031 45.605 43.4045 45.6649 44.177 45.7248C44.2617 45.731 44.3485 45.7372 44.4332 45.7434C50.0267 46.1669 55.6677 45.9996 61.2488 45.4811C62.4736 45.3675 64.093 45.2332 65.3881 45.0742V42.3394C65.3902 42.3373 65.3923 42.3353 65.3923 42.3353C64.0166 42.5398 62.6306 42.6348 61.2426 42.7091Z" fill="url(#paint10_linear_222_42)"/>
</g>
<defs>
<linearGradient id="paint0_linear_222_42" x1="31.7745" y1="45.8291" x2="39.8189" y2="45.8291" gradientUnits="userSpaceOnUse">
<stop stop-color="#F68B21"/>
<stop offset="1" stop-color="#FED402"/>
</linearGradient>
<linearGradient id="paint1_linear_222_42" x1="10.6098" y1="41.4822" x2="27.8427" y2="41.4822" gradientUnits="userSpaceOnUse">
<stop stop-color="#009348"/>
<stop offset="1" stop-color="#003307"/>
</linearGradient>
<linearGradient id="paint2_linear_222_42" x1="53.5534" y1="26.883" x2="63.6041" y2="26.883" gradientUnits="userSpaceOnUse">
<stop offset="0.00192358" stop-color="#A76A28"/>
<stop offset="1" stop-color="#FAAA3F"/>
</linearGradient>
<linearGradient id="paint3_linear_222_42" x1="62.1515" y1="24.3116" x2="64.7747" y2="24.3116" gradientUnits="userSpaceOnUse">
<stop offset="0.00192358" stop-color="#A76A28"/>
<stop offset="1" stop-color="#FAAA3F"/>
</linearGradient>
<linearGradient id="paint4_linear_222_42" x1="52.3018" y1="29.4939" x2="54.925" y2="29.4939" gradientUnits="userSpaceOnUse">
<stop offset="0.00192358" stop-color="#A76A28"/>
<stop offset="1" stop-color="#FAAA3F"/>
</linearGradient>
<linearGradient id="paint5_linear_222_42" x1="57.2105" y1="26.9688" x2="59.8337" y2="26.9688" gradientUnits="userSpaceOnUse">
<stop offset="0.00192358" stop-color="#A76A28"/>
<stop offset="1" stop-color="#FAAA3F"/>
</linearGradient>
<linearGradient id="paint6_linear_222_42" x1="51.7501" y1="37.5439" x2="55.4768" y2="37.5439" gradientUnits="userSpaceOnUse">
<stop stop-color="#009348"/>
<stop offset="1" stop-color="#003307"/>
</linearGradient>
<linearGradient id="paint7_linear_222_42" x1="56.6587" y1="36.28" x2="60.3855" y2="36.28" gradientUnits="userSpaceOnUse">
<stop stop-color="#009348"/>
<stop offset="1" stop-color="#003307"/>
</linearGradient>
<linearGradient id="paint8_linear_222_42" x1="61.5675" y1="34.8964" x2="65.3587" y2="34.8964" gradientUnits="userSpaceOnUse">
<stop stop-color="#009348"/>
<stop offset="1" stop-color="#003307"/>
</linearGradient>
<linearGradient id="paint9_linear_222_42" x1="31.0404" y1="41.698" x2="46.283" y2="41.698" gradientUnits="userSpaceOnUse">
<stop stop-color="#009348"/>
<stop offset="1" stop-color="#003307"/>
</linearGradient>
<linearGradient id="paint10_linear_222_42" x1="31.7745" y1="39.4946" x2="65.3907" y2="39.4946" gradientUnits="userSpaceOnUse">
<stop offset="0.00192358" stop-color="#A76A28"/>
<stop offset="1" stop-color="#FAAA3F"/>
</linearGradient>
<clipPath id="clip0_222_42">
<rect width="54.7804" height="30" fill="white" transform="translate(10.6098 23)"/>
</clipPath>
</defs>
</svg>
