<svg width="103" height="56" viewBox="0 0 103 56" fill="none" xmlns="http://www.w3.org/2000/svg">
<g clip-path="url(#clip0_222_104)">
<path d="M47.8014 42.64C47.8014 42.64 47.8129 42.6361 47.8283 42.6323C47.7936 42.6168 47.7589 42.6053 47.7242 42.5898L47.8014 42.64Z" fill="url(#paint0_linear_222_104)"/>
<path d="M32.6447 22.3669L29.9688 13.0015L24.5516 21.3606L27.1889 20.281C25.4152 62.7013 0.476654 53.3512 0.476654 53.3512C28.9239 65.8591 30.5741 30.5487 30.4122 20.6203L32.6447 22.3669Z" fill="white"/>
<path d="M80.9487 12.3651L80.6364 11.86L99.0897 2.13208L99.3982 2.63718L80.9487 12.3651Z" fill="white"/>
<path d="M99.136 4.89672C100.488 4.89672 101.584 3.80055 101.584 2.44836C101.584 1.09617 100.488 0 99.136 0C97.7838 0 96.6876 1.09617 96.6876 2.44836C96.6876 3.80055 97.7838 4.89672 99.136 4.89672Z" fill="white"/>
<path d="M80.7482 14.5706C82.1004 14.5706 83.1966 13.4744 83.1966 12.1222C83.1966 10.77 82.1004 9.67383 80.7482 9.67383C79.396 9.67383 78.2999 10.77 78.2999 12.1222C78.2999 13.4744 79.396 14.5706 80.7482 14.5706Z" fill="white"/>
<path d="M89.9132 9.85522C91.2654 9.85522 92.3615 8.75905 92.3615 7.40686C92.3615 6.05466 91.2654 4.9585 89.9132 4.9585C88.561 4.9585 87.4648 6.05466 87.4648 7.40686C87.4648 8.75905 88.561 9.85522 89.9132 9.85522Z" fill="white"/>
<path d="M84.2299 35.8694V18.9892C84.2299 18.6152 83.9292 18.3145 83.5552 18.3145H77.9451C77.5711 18.3145 77.2704 18.6152 77.2704 18.9892V35.9851C79.6493 35.9812 81.9743 35.9388 84.2299 35.8694Z" fill="white"/>
<path d="M93.391 35.4531V14.4357C93.391 14.0617 93.0903 13.761 92.7163 13.761H87.1062C86.7322 13.761 86.4315 14.0617 86.4315 14.4357V35.8155C87.8966 35.7577 92.7085 35.4993 93.391 35.4531Z" fill="white"/>
<path d="M102.676 34.732L102.556 24.954V9.73944C102.556 9.36544 102.255 9.0647 101.881 9.0647H96.2712C95.8972 9.0647 95.5965 9.36544 95.5965 9.73944V35.3489C98.1528 35.1638 100.524 34.9556 102.664 34.7436C102.668 34.7397 102.672 34.7359 102.676 34.732Z" fill="white"/>
<path d="M67.0258 26.7314C66.7289 21.9311 64.7972 17.4855 59.9545 15.0949C54.9305 12.6196 48.5532 13.7223 45.1332 18.2913C46.9608 17.6165 48.2795 16.9842 50.0916 16.83C52.0773 16.6603 54.1131 16.9649 55.9407 17.7746C58.4277 18.8774 60.4982 20.9324 61.5122 23.4579C62.7075 26.4229 62.4106 29.7735 61.7551 32.9043C59.4648 43.8082 51.7882 54.5116 38.6171 55.6105C40.8766 55.8071 43.1591 56.1426 45.4725 55.9305C51.7149 55.3637 57.1784 51.9553 60.6755 47.3053C63.4555 43.6039 65.1712 39.193 66.247 34.6895C66.8562 32.1216 67.1878 29.3725 67.0258 26.7314Z" fill="white"/>
<path d="M94.9911 36.7909C94.1698 36.8333 93.3447 36.8758 92.5235 36.9182C89.1227 37.0917 85.7297 37.2729 82.3252 37.323C81.9435 37.3307 81.5617 37.3346 81.1762 37.3384C76.025 37.3886 70.8699 37.2459 65.7264 36.9143C64.8435 36.8565 63.9644 36.7909 63.0853 36.7254C62.3373 36.6676 61.5893 36.602 60.8413 36.5365C60.0007 36.4632 59.1563 36.3822 58.3158 36.2974C57.7336 36.2396 57.1552 36.1817 56.5769 36.12C53.0914 35.7383 49.4901 35.2217 46.5367 33.3401C46.4364 33.2745 46.34 33.209 46.2398 33.1396C46.2128 33.1165 46.1897 33.0933 46.1627 33.0702L46.1048 33.0201C46.1087 33.0239 46.0779 32.9931 46.1087 33.0278L46.0933 33.0124L46.0624 32.9815L45.9352 32.8543C45.8697 32.7887 45.8195 32.7425 45.7501 32.6692C45.6846 32.5998 45.619 32.5304 45.5535 32.4571C45.2952 32.1757 45.0561 31.8749 44.8363 31.5626C44.4006 30.938 44.0266 30.2825 43.7413 29.6116C43.1514 28.2699 42.8622 26.9011 42.7851 25.6673C42.7041 24.4296 42.8506 23.3269 43.0781 22.4362C43.3056 21.5417 43.6179 20.8554 43.8531 20.3966C43.9727 20.1652 44.0729 19.9917 44.1384 19.876C44.2078 19.7604 44.2426 19.6987 44.2426 19.6987L44.8865 18.7078L43.9032 19.3709C43.9032 19.3709 43.8416 19.4134 43.7259 19.4982C43.6064 19.583 43.4367 19.7141 43.2247 19.8992C42.8005 20.2693 42.2029 20.8708 41.6207 21.7885C41.3662 22.1856 41.1233 22.6483 40.8997 23.1688C40.6105 23.8435 40.3637 24.6108 40.1979 25.4745C39.9088 26.9936 39.8856 28.7904 40.3252 30.699C40.437 31.1732 40.5796 31.6552 40.7493 32.141C40.9189 32.6268 41.1233 33.1126 41.3701 33.5946C41.613 34.0765 41.8906 34.5546 42.2067 35.025C42.2877 35.1407 42.3687 35.2602 42.4535 35.372C42.5306 35.4839 42.6386 35.6188 42.7311 35.7345L42.8429 35.8771L42.8699 35.9118L42.8853 35.9311L42.9201 35.9697L42.9895 36.0506C43.082 36.1586 43.1745 36.2666 43.2709 36.3745C44.0382 37.2266 44.9327 38.0093 45.9236 38.6841C46.421 39.0195 47.4813 39.6094 47.4813 39.6094L47.7281 39.7637C47.7628 39.7791 47.7975 39.7907 47.8322 39.8061C49.602 40.5078 51.4912 40.9975 53.4229 41.3522C54.1247 41.4795 54.8264 41.5913 55.5359 41.6915C56.5846 41.838 57.6372 41.9537 58.6782 42.0539C60.1974 42.1966 61.6934 42.3084 63.1354 42.4202C63.2935 42.4318 63.4554 42.4434 63.6135 42.4549C74.0547 43.2454 84.5846 42.933 95.0027 41.9653C97.2891 41.7532 100.312 41.5026 102.729 41.2057V36.1008C102.733 36.0969 102.737 36.0931 102.737 36.0931C100.169 36.4748 97.5821 36.6521 94.9911 36.7909Z" fill="white"/>
</g>
<defs>
<linearGradient id="paint0_linear_222_104" x1="39.9841" y1="42.6144" x2="55.0002" y2="42.6144" gradientUnits="userSpaceOnUse">
<stop stop-color="#F68B21"/>
<stop offset="1" stop-color="#FED402"/>
</linearGradient>
<clipPath id="clip0_222_104">
<rect width="102.257" height="56" fill="white" transform="translate(0.476654)"/>
</clipPath>
</defs>
</svg>
