<svg width="103" height="57" viewBox="0 0 103 57" fill="none" xmlns="http://www.w3.org/2000/svg">
<g clip-path="url(#clip0_222_72)">
<path d="M47.8014 43.2601C47.8014 43.2601 47.8129 43.2562 47.8283 43.2524C47.7936 43.237 47.7589 43.2254 47.7242 43.21L47.8014 43.2601Z" fill="url(#paint0_linear_222_72)"/>
<path d="M32.6447 22.987L29.9688 13.6216L24.5516 21.9807L27.1889 20.9011C25.4152 63.3214 0.476654 53.9713 0.476654 53.9713C28.9239 66.4792 30.5741 31.1688 30.4122 21.2404L32.6447 22.987Z" fill="url(#paint1_linear_222_72)"/>
<path d="M80.9487 12.9852L80.6364 12.4801L99.0897 2.7522L99.3982 3.25729L80.9487 12.9852Z" fill="url(#paint2_linear_222_72)"/>
<path d="M99.136 5.51684C100.488 5.51684 101.584 4.42067 101.584 3.06848C101.584 1.71629 100.488 0.620117 99.136 0.620117C97.7838 0.620117 96.6876 1.71629 96.6876 3.06848C96.6876 4.42067 97.7838 5.51684 99.136 5.51684Z" fill="url(#paint3_linear_222_72)"/>
<path d="M80.7482 15.1907C82.1004 15.1907 83.1966 14.0945 83.1966 12.7423C83.1966 11.3901 82.1004 10.2939 80.7482 10.2939C79.396 10.2939 78.2999 11.3901 78.2999 12.7423C78.2999 14.0945 79.396 15.1907 80.7482 15.1907Z" fill="url(#paint4_linear_222_72)"/>
<path d="M89.9132 10.4753C91.2654 10.4753 92.3615 9.37917 92.3615 8.02697C92.3615 6.67478 91.2654 5.57861 89.9132 5.57861C88.561 5.57861 87.4648 6.67478 87.4648 8.02697C87.4648 9.37917 88.561 10.4753 89.9132 10.4753Z" fill="url(#paint5_linear_222_72)"/>
<path d="M84.2299 36.4895V19.6093C84.2299 19.2353 83.9292 18.9346 83.5552 18.9346H77.9451C77.5711 18.9346 77.2704 19.2353 77.2704 19.6093V36.6052C79.6493 36.6013 81.9743 36.5589 84.2299 36.4895Z" fill="url(#paint6_linear_222_72)"/>
<path d="M93.391 36.0732V15.0558C93.391 14.6818 93.0903 14.3811 92.7163 14.3811H87.1062C86.7322 14.3811 86.4315 14.6818 86.4315 15.0558V36.4356C87.8966 36.3778 92.7085 36.1195 93.391 36.0732Z" fill="url(#paint7_linear_222_72)"/>
<path d="M102.676 35.3521L102.556 25.5741V10.3596C102.556 9.98556 102.255 9.68481 101.881 9.68481H96.2712C95.8972 9.68481 95.5965 9.98556 95.5965 10.3596V35.969C98.1528 35.784 100.524 35.5758 102.664 35.3637C102.668 35.3598 102.672 35.356 102.676 35.3521Z" fill="url(#paint8_linear_222_72)"/>
<path d="M67.0258 27.3515C66.7289 22.5512 64.7972 18.1056 59.9545 15.715C54.9305 13.2397 48.5532 14.3424 45.1332 18.9114C46.9608 18.2367 48.2795 17.6043 50.0916 17.4501C52.0773 17.2805 54.1131 17.5851 55.9407 18.3947C58.4277 19.4975 60.4982 21.5526 61.5122 24.078C62.7075 27.0431 62.4106 30.3936 61.7551 33.5245C59.4648 44.4283 51.7882 55.1317 38.6171 56.2306C40.8766 56.4272 43.1591 56.7627 45.4725 56.5506C51.7149 55.9838 57.1784 52.5754 60.6755 47.9255C63.4555 44.224 65.1712 39.8131 66.247 35.3096C66.8562 32.7418 67.1878 29.9927 67.0258 27.3515Z" fill="url(#paint9_linear_222_72)"/>
<path d="M94.9911 37.4111C94.1698 37.4535 93.3447 37.4959 92.5235 37.5383C89.1227 37.7118 85.7297 37.893 82.3252 37.9431C81.9435 37.9509 81.5617 37.9547 81.1762 37.9586C76.025 38.0087 70.8699 37.866 65.7264 37.5344C64.8435 37.4766 63.9644 37.4111 63.0853 37.3455C62.3373 37.2877 61.5893 37.2221 60.8413 37.1566C60.0007 37.0833 59.1563 37.0024 58.3158 36.9175C57.7336 36.8597 57.1552 36.8019 56.5769 36.7402C53.0914 36.3585 49.4901 35.8418 46.5367 33.9602C46.4364 33.8947 46.34 33.8291 46.2398 33.7597C46.2128 33.7366 46.1897 33.7134 46.1627 33.6903L46.1048 33.6402C46.1087 33.644 46.0779 33.6132 46.1087 33.6479L46.0933 33.6325L46.0624 33.6016L45.9352 33.4744C45.8697 33.4088 45.8195 33.3626 45.7501 33.2893C45.6846 33.2199 45.619 33.1505 45.5535 33.0773C45.2952 32.7958 45.0561 32.4951 44.8363 32.1827C44.4006 31.5581 44.0266 30.9027 43.7413 30.2318C43.1514 28.89 42.8622 27.5212 42.7851 26.2874C42.7041 25.0497 42.8506 23.947 43.0781 23.0563C43.3056 22.1618 43.6179 21.4755 43.8531 21.0167C43.9727 20.7853 44.0729 20.6118 44.1384 20.4962C44.2078 20.3805 44.2426 20.3188 44.2426 20.3188L44.8865 19.3279L43.9032 19.9911C43.9032 19.9911 43.8416 20.0335 43.7259 20.1183C43.6064 20.2031 43.4367 20.3342 43.2247 20.5193C42.8005 20.8894 42.2029 21.4909 41.6207 22.4086C41.3662 22.8057 41.1233 23.2684 40.8997 23.7889C40.6105 24.4637 40.3637 25.2309 40.1979 26.0946C39.9088 27.6138 39.8856 29.4105 40.3252 31.3191C40.437 31.7933 40.5796 32.2753 40.7493 32.7611C40.9189 33.2469 41.1233 33.7327 41.3701 34.2147C41.613 34.6966 41.8906 35.1748 42.2067 35.6451C42.2877 35.7608 42.3687 35.8803 42.4535 35.9922C42.5306 36.104 42.6386 36.2389 42.7311 36.3546L42.8429 36.4973L42.8699 36.532L42.8853 36.5512L42.9201 36.5898L42.9895 36.6708C43.082 36.7787 43.1745 36.8867 43.2709 36.9946C44.0382 37.8467 44.9327 38.6295 45.9236 39.3042C46.421 39.6396 47.4813 40.2296 47.4813 40.2296L47.7281 40.3838C47.7628 40.3992 47.7975 40.4108 47.8322 40.4262C49.602 41.1279 51.4912 41.6176 53.4229 41.9723C54.1247 42.0996 54.8264 42.2114 55.5359 42.3116C56.5846 42.4581 57.6372 42.5738 58.6782 42.6741C60.1974 42.8167 61.6934 42.9285 63.1354 43.0404C63.2935 43.0519 63.4554 43.0635 63.6135 43.0751C74.0547 43.8655 84.5846 43.5532 95.0027 42.5854C97.2891 42.3733 100.312 42.1227 102.729 41.8258V36.7209C102.733 36.717 102.737 36.7132 102.737 36.7132C100.169 37.0949 97.5821 37.2722 94.9911 37.4111Z" fill="url(#paint10_linear_222_72)"/>
</g>
<defs>
<linearGradient id="paint0_linear_222_72" x1="39.9841" y1="43.2345" x2="55.0002" y2="43.2345" gradientUnits="userSpaceOnUse">
<stop stop-color="#F68B21"/>
<stop offset="1" stop-color="#FED402"/>
</linearGradient>
<linearGradient id="paint1_linear_222_72" x1="0.476654" y1="35.1207" x2="32.6447" y2="35.1207" gradientUnits="userSpaceOnUse">
<stop stop-color="#009348"/>
<stop offset="1" stop-color="#003307"/>
</linearGradient>
<linearGradient id="paint2_linear_222_72" x1="80.6381" y1="7.86866" x2="99.3993" y2="7.86866" gradientUnits="userSpaceOnUse">
<stop offset="0.00192358" stop-color="#A76A28"/>
<stop offset="1" stop-color="#FAAA3F"/>
</linearGradient>
<linearGradient id="paint3_linear_222_72" x1="96.6877" y1="3.06848" x2="101.584" y2="3.06848" gradientUnits="userSpaceOnUse">
<stop offset="0.00192358" stop-color="#A76A28"/>
<stop offset="1" stop-color="#FAAA3F"/>
</linearGradient>
<linearGradient id="paint4_linear_222_72" x1="78.3017" y1="12.7422" x2="83.1984" y2="12.7422" gradientUnits="userSpaceOnUse">
<stop offset="0.00192358" stop-color="#A76A28"/>
<stop offset="1" stop-color="#FAAA3F"/>
</linearGradient>
<linearGradient id="paint5_linear_222_72" x1="87.4645" y1="8.02863" x2="92.3612" y2="8.02863" gradientUnits="userSpaceOnUse">
<stop offset="0.00192358" stop-color="#A76A28"/>
<stop offset="1" stop-color="#FAAA3F"/>
</linearGradient>
<linearGradient id="paint6_linear_222_72" x1="77.2719" y1="27.7689" x2="84.2283" y2="27.7689" gradientUnits="userSpaceOnUse">
<stop stop-color="#009348"/>
<stop offset="1" stop-color="#003307"/>
</linearGradient>
<linearGradient id="paint7_linear_222_72" x1="86.4345" y1="25.4088" x2="93.3912" y2="25.4088" gradientUnits="userSpaceOnUse">
<stop stop-color="#009348"/>
<stop offset="1" stop-color="#003307"/>
</linearGradient>
<linearGradient id="paint8_linear_222_72" x1="95.5976" y1="22.8265" x2="102.675" y2="22.8265" gradientUnits="userSpaceOnUse">
<stop stop-color="#009348"/>
<stop offset="1" stop-color="#003307"/>
</linearGradient>
<linearGradient id="paint9_linear_222_72" x1="38.6138" y1="35.5231" x2="67.0667" y2="35.5231" gradientUnits="userSpaceOnUse">
<stop stop-color="#009348"/>
<stop offset="1" stop-color="#003307"/>
</linearGradient>
<linearGradient id="paint10_linear_222_72" x1="39.984" y1="31.4106" x2="102.734" y2="31.4106" gradientUnits="userSpaceOnUse">
<stop offset="0.00192358" stop-color="#A76A28"/>
<stop offset="1" stop-color="#FAAA3F"/>
</linearGradient>
<clipPath id="clip0_222_72">
<rect width="102.257" height="56" fill="white" transform="translate(0.476654 0.620117)"/>
</clipPath>
</defs>
</svg>
