<svg width="478" height="478" viewBox="0 0 478 478" fill="none" xmlns="http://www.w3.org/2000/svg">
<rect x="49" y="49" width="380" height="380" rx="190" fill="#FAAA3F" fill-opacity="0.09"/>
<rect x="49" y="49" width="380" height="380" rx="190" stroke="#FAAA3F" stroke-opacity="0.12" stroke-width="96.6667"/>
<path d="M261.939 141C254.055 141 247.602 147.486 247.602 155.412C247.602 157.937 248.313 160.283 249.461 162.353L224.014 186.431C221.379 183.351 217.526 181.353 213.194 181.353C207.901 181.353 203.306 184.307 200.823 188.626L175.134 171.411C175.601 169.994 175.918 168.51 175.918 166.941C175.918 159.016 169.466 152.529 161.582 152.529C153.698 152.529 147.245 159.016 147.245 166.941C147.245 168.322 147.501 169.632 147.867 170.899L130.718 181.567C130.558 181.667 130.419 181.797 130.309 181.951C130.199 182.105 130.12 182.279 130.077 182.464C130.033 182.648 130.027 182.839 130.057 183.027C130.088 183.214 130.154 183.393 130.254 183.554C130.353 183.715 130.483 183.855 130.636 183.966C130.789 184.077 130.962 184.156 131.146 184.199C131.329 184.243 131.52 184.249 131.706 184.219C131.892 184.188 132.07 184.121 132.231 184.021L148.959 173.612C151.369 178.185 156.101 181.353 161.582 181.353C166.874 181.353 171.469 178.399 173.953 174.079L199.641 191.295C199.174 192.712 198.857 194.196 198.857 195.765C198.857 203.69 205.31 210.176 213.194 210.176C221.078 210.176 227.531 203.69 227.531 195.765C227.531 193.239 226.819 190.893 225.671 188.823L251.119 164.746C253.754 167.825 257.607 169.823 261.939 169.823C267.371 169.823 272.064 166.709 274.495 162.201L302.748 180.143C302.357 181.45 302.082 182.805 302.082 184.235C302.082 192.16 308.534 198.647 316.418 198.647C324.302 198.647 330.755 192.16 330.755 184.235C330.755 182.483 330.396 180.821 329.82 179.264L347.36 166.671C347.618 166.491 347.811 166.232 347.908 165.932C348.005 165.631 348.001 165.308 347.898 165.01C347.794 164.712 347.596 164.456 347.334 164.282C347.072 164.109 346.76 164.026 346.447 164.048C346.173 164.067 345.911 164.164 345.691 164.329L328.537 176.641C325.997 172.568 321.527 169.823 316.418 169.823C310.986 169.823 306.293 172.938 303.863 177.446L275.609 159.504C276 158.197 276.276 156.842 276.276 155.412C276.276 147.486 269.823 141 261.939 141ZM261.939 146.765C266.724 146.765 270.541 150.602 270.541 155.412C270.541 160.222 266.724 164.059 261.939 164.059C257.154 164.059 253.337 160.222 253.337 155.412C253.337 150.602 257.154 146.765 261.939 146.765ZM161.582 158.294C166.366 158.294 170.184 162.131 170.184 166.941C170.184 171.751 166.366 175.588 161.582 175.588C156.797 175.588 152.98 171.751 152.98 166.941C152.98 162.131 156.797 158.294 161.582 158.294ZM316.418 175.588C321.203 175.588 325.02 179.425 325.02 184.235C325.02 189.045 321.203 192.882 316.418 192.882C311.634 192.882 307.816 189.045 307.816 184.235C307.816 179.425 311.634 175.588 316.418 175.588ZM213.194 187.118C217.979 187.118 221.796 190.955 221.796 195.765C221.796 200.574 217.979 204.412 213.194 204.412C208.409 204.412 204.592 200.574 204.592 195.765C204.592 190.955 208.409 187.118 213.194 187.118ZM247.602 215.941C246.842 215.941 246.112 216.245 245.575 216.785C245.037 217.326 244.735 218.059 244.735 218.823V331.235H233.265V282.235C233.265 281.471 232.963 280.738 232.425 280.197C231.888 279.657 231.158 279.353 230.398 279.353H195.99C195.229 279.353 194.5 279.657 193.962 280.197C193.425 280.738 193.123 281.471 193.122 282.235V331.235H181.653V239C181.653 238.235 181.351 237.502 180.813 236.962C180.275 236.421 179.546 236.118 178.786 236.118H144.378C143.617 236.118 142.888 236.421 142.35 236.962C141.812 237.502 141.51 238.235 141.51 239V331.235H132.908C132.528 331.23 132.151 331.3 131.798 331.443C131.446 331.585 131.125 331.796 130.854 332.065C130.584 332.333 130.369 332.652 130.222 333.005C130.076 333.357 130 333.735 130 334.117C130 334.499 130.076 334.878 130.222 335.23C130.369 335.582 130.584 335.902 130.854 336.17C131.125 336.438 131.446 336.65 131.798 336.792C132.151 336.935 132.528 337.005 132.908 337H345.092C345.472 337.005 345.849 336.935 346.202 336.792C346.554 336.65 346.875 336.438 347.146 336.17C347.416 335.902 347.631 335.582 347.778 335.23C347.924 334.878 348 334.499 348 334.117C348 333.735 347.924 333.357 347.778 333.005C347.631 332.652 347.416 332.333 347.146 332.065C346.875 331.796 346.554 331.585 346.202 331.443C345.849 331.3 345.472 331.23 345.092 331.235H336.49V264.941C336.49 264.177 336.188 263.443 335.65 262.903C335.112 262.362 334.383 262.059 333.622 262.059H299.214C298.454 262.059 297.725 262.362 297.187 262.903C296.649 263.443 296.347 264.177 296.347 264.941V331.235H284.878V218.823C284.877 218.059 284.575 217.326 284.038 216.785C283.5 216.245 282.771 215.941 282.01 215.941H247.602ZM250.469 221.706H279.143V331.235H250.469V221.706ZM257.615 227.448C257.427 227.451 257.241 227.491 257.068 227.566C256.896 227.641 256.739 227.75 256.608 227.886C256.477 228.022 256.374 228.182 256.305 228.358C256.235 228.534 256.201 228.722 256.204 228.912V234.676C256.201 234.867 256.236 235.057 256.307 235.234C256.378 235.411 256.483 235.573 256.617 235.709C256.75 235.845 256.909 235.953 257.084 236.026C257.26 236.1 257.448 236.138 257.638 236.138C257.828 236.138 258.016 236.1 258.191 236.026C258.366 235.953 258.525 235.845 258.659 235.709C258.792 235.573 258.897 235.411 258.968 235.234C259.039 235.057 259.074 234.867 259.071 234.676V228.912C259.074 228.719 259.039 228.527 258.967 228.348C258.895 228.169 258.787 228.006 258.652 227.87C258.516 227.733 258.354 227.626 258.176 227.553C257.998 227.481 257.807 227.445 257.615 227.448ZM257.615 241.86C257.427 241.863 257.241 241.903 257.068 241.978C256.896 242.053 256.739 242.162 256.608 242.298C256.477 242.434 256.374 242.594 256.305 242.77C256.235 242.946 256.201 243.134 256.204 243.323V254.853C256.201 255.044 256.236 255.233 256.307 255.411C256.378 255.588 256.483 255.749 256.617 255.885C256.75 256.021 256.909 256.129 257.084 256.203C257.26 256.277 257.448 256.314 257.638 256.314C257.828 256.314 258.016 256.277 258.191 256.203C258.366 256.129 258.525 256.021 258.659 255.885C258.792 255.749 258.897 255.588 258.968 255.411C259.039 255.233 259.074 255.044 259.071 254.853V243.323C259.074 243.13 259.039 242.939 258.967 242.76C258.895 242.581 258.787 242.418 258.652 242.282C258.516 242.145 258.354 242.037 258.176 241.965C257.998 241.892 257.807 241.857 257.615 241.86ZM147.245 241.882H175.918V331.235H147.245V241.882ZM154.391 247.624C154.203 247.627 154.017 247.668 153.844 247.743C153.671 247.818 153.515 247.926 153.384 248.062C153.253 248.198 153.149 248.359 153.08 248.535C153.011 248.711 152.977 248.899 152.98 249.088V254.853C152.977 255.044 153.012 255.233 153.083 255.411C153.154 255.588 153.259 255.749 153.392 255.885C153.526 256.021 153.685 256.129 153.86 256.203C154.035 256.277 154.223 256.314 154.413 256.314C154.603 256.314 154.791 256.277 154.967 256.203C155.142 256.129 155.301 256.021 155.434 255.885C155.568 255.749 155.673 255.588 155.744 255.411C155.815 255.233 155.85 255.044 155.847 254.853V249.088C155.85 248.895 155.814 248.703 155.742 248.524C155.67 248.345 155.563 248.183 155.427 248.046C155.291 247.91 155.13 247.802 154.952 247.73C154.774 247.657 154.583 247.621 154.391 247.624ZM154.391 262.036C154.203 262.039 154.017 262.079 153.844 262.154C153.671 262.23 153.515 262.338 153.384 262.474C153.253 262.61 153.149 262.771 153.08 262.947C153.011 263.123 152.977 263.311 152.98 263.5V275.029C152.977 275.22 153.012 275.41 153.083 275.587C153.154 275.764 153.259 275.926 153.392 276.062C153.526 276.198 153.685 276.306 153.86 276.379C154.035 276.453 154.223 276.491 154.413 276.491C154.603 276.491 154.791 276.453 154.967 276.379C155.142 276.306 155.301 276.198 155.434 276.062C155.568 275.926 155.673 275.764 155.744 275.587C155.815 275.41 155.85 275.22 155.847 275.029V263.5C155.85 263.307 155.814 263.115 155.742 262.936C155.67 262.757 155.563 262.595 155.427 262.458C155.291 262.322 155.13 262.214 154.952 262.141C154.774 262.069 154.583 262.033 154.391 262.036ZM257.615 262.036C257.427 262.039 257.241 262.079 257.068 262.154C256.896 262.23 256.739 262.338 256.608 262.474C256.477 262.61 256.374 262.771 256.305 262.947C256.235 263.123 256.201 263.311 256.204 263.5V324.029C256.201 324.22 256.236 324.41 256.307 324.587C256.378 324.764 256.483 324.925 256.617 325.061C256.75 325.197 256.909 325.305 257.084 325.379C257.26 325.453 257.448 325.491 257.638 325.491C257.828 325.491 258.016 325.453 258.191 325.379C258.366 325.305 258.525 325.197 258.659 325.061C258.792 324.925 258.897 324.764 258.968 324.587C259.039 324.41 259.074 324.22 259.071 324.029V263.5C259.074 263.307 259.039 263.115 258.967 262.936C258.895 262.757 258.787 262.595 258.652 262.458C258.516 262.322 258.354 262.214 258.176 262.141C257.998 262.069 257.807 262.033 257.615 262.036ZM302.082 267.823H330.755V331.235H302.082V267.823ZM309.228 276.448C309.039 276.451 308.853 276.491 308.681 276.566C308.508 276.641 308.351 276.75 308.22 276.886C308.089 277.022 307.986 277.182 307.917 277.358C307.848 277.534 307.813 277.722 307.816 277.912V283.676C307.814 283.867 307.849 284.057 307.92 284.234C307.99 284.411 308.096 284.573 308.229 284.709C308.362 284.845 308.521 284.953 308.697 285.026C308.872 285.1 309.06 285.138 309.25 285.138C309.44 285.138 309.628 285.1 309.803 285.026C309.979 284.953 310.138 284.845 310.271 284.709C310.404 284.573 310.51 284.411 310.58 284.234C310.651 284.057 310.686 283.867 310.684 283.676V277.912C310.687 277.719 310.651 277.527 310.579 277.348C310.507 277.169 310.4 277.006 310.264 276.87C310.128 276.733 309.966 276.626 309.788 276.553C309.61 276.481 309.42 276.445 309.228 276.448ZM154.391 282.213C154.203 282.216 154.017 282.256 153.844 282.331C153.671 282.406 153.515 282.515 153.384 282.651C153.253 282.787 153.149 282.947 153.08 283.123C153.011 283.299 152.977 283.487 152.98 283.676V324.029C152.977 324.22 153.012 324.41 153.083 324.587C153.154 324.764 153.259 324.925 153.392 325.061C153.526 325.197 153.685 325.305 153.86 325.379C154.035 325.453 154.223 325.491 154.413 325.491C154.603 325.491 154.791 325.453 154.967 325.379C155.142 325.305 155.301 325.197 155.434 325.061C155.568 324.925 155.673 324.764 155.744 324.587C155.815 324.41 155.85 324.22 155.847 324.029V283.676C155.85 283.483 155.814 283.292 155.742 283.113C155.67 282.934 155.563 282.771 155.427 282.635C155.291 282.498 155.13 282.39 154.952 282.318C154.774 282.245 154.583 282.21 154.391 282.213ZM198.857 285.117H227.531V331.235H198.857V285.117ZM206.003 290.86C205.815 290.863 205.629 290.903 205.456 290.978C205.283 291.053 205.127 291.162 204.996 291.298C204.865 291.434 204.762 291.594 204.692 291.77C204.623 291.946 204.589 292.134 204.592 292.323V298.088C204.589 298.279 204.624 298.469 204.695 298.646C204.766 298.823 204.871 298.984 205.005 299.12C205.138 299.256 205.297 299.364 205.472 299.438C205.647 299.512 205.836 299.55 206.026 299.55C206.216 299.55 206.404 299.512 206.579 299.438C206.754 299.364 206.913 299.256 207.047 299.12C207.18 298.984 207.285 298.823 207.356 298.646C207.427 298.469 207.462 298.279 207.459 298.088V292.323C207.462 292.13 207.427 291.939 207.354 291.76C207.282 291.581 207.175 291.418 207.039 291.282C206.904 291.145 206.742 291.037 206.564 290.965C206.386 290.892 206.195 290.857 206.003 290.86ZM309.228 290.86C309.039 290.863 308.853 290.903 308.681 290.978C308.508 291.053 308.351 291.162 308.22 291.298C308.089 291.434 307.986 291.594 307.917 291.77C307.848 291.946 307.813 292.134 307.816 292.323V324.029C307.814 324.22 307.849 324.41 307.92 324.587C307.99 324.764 308.096 324.925 308.229 325.061C308.362 325.197 308.521 325.305 308.697 325.379C308.872 325.453 309.06 325.491 309.25 325.491C309.44 325.491 309.628 325.453 309.803 325.379C309.979 325.305 310.138 325.197 310.271 325.061C310.404 324.925 310.51 324.764 310.58 324.587C310.651 324.41 310.686 324.22 310.684 324.029V292.323C310.687 292.13 310.651 291.939 310.579 291.76C310.507 291.581 310.4 291.418 310.264 291.282C310.128 291.145 309.966 291.037 309.788 290.965C309.61 290.892 309.42 290.857 309.228 290.86ZM206.003 305.271C205.815 305.274 205.629 305.315 205.456 305.39C205.283 305.465 205.127 305.573 204.996 305.709C204.865 305.845 204.762 306.006 204.692 306.182C204.623 306.358 204.589 306.546 204.592 306.735V324.029C204.589 324.22 204.624 324.41 204.695 324.587C204.766 324.764 204.871 324.925 205.005 325.061C205.138 325.197 205.297 325.305 205.472 325.379C205.647 325.453 205.836 325.491 206.026 325.491C206.216 325.491 206.404 325.453 206.579 325.379C206.754 325.305 206.913 325.197 207.047 325.061C207.18 324.925 207.285 324.764 207.356 324.587C207.427 324.41 207.462 324.22 207.459 324.029V306.735C207.462 306.542 207.427 306.35 207.354 306.171C207.282 305.992 207.175 305.83 207.039 305.693C206.904 305.557 206.742 305.449 206.564 305.377C206.386 305.304 206.195 305.268 206.003 305.271Z" fill="url(#paint0_linear_69_44)"/>
<defs>
<linearGradient id="paint0_linear_69_44" x1="130" y1="261.615" x2="348" y2="261.615" gradientUnits="userSpaceOnUse">
<stop stop-color="#F9A93F"/>
<stop offset="1" stop-color="#A86B28"/>
</linearGradient>
</defs>
</svg>
