<svg width="478" height="478" viewBox="0 0 478 478" fill="none" xmlns="http://www.w3.org/2000/svg">
<rect x="49" y="49" width="380" height="380" rx="190" fill="#FAAA3F" fill-opacity="0.09"/>
<rect x="49" y="49" width="380" height="380" rx="190" stroke="#FAAA3F" stroke-opacity="0.12" stroke-width="96.6667"/>
<path d="M152.776 130C140.235 130 130 140.235 130 152.776V325.224C130 337.765 140.235 348 152.776 348H325.224C337.765 348 348 337.765 348 325.224V152.776C348 140.235 337.765 130 325.224 130H152.776ZM152.776 136.507H237.373V185.313H136.507V152.776C136.507 143.751 143.751 136.507 152.776 136.507ZM240.627 136.507H325.224C334.249 136.507 341.493 143.751 341.493 152.776V185.313H292.687V180.433C292.69 180.215 292.65 179.999 292.568 179.797C292.486 179.595 292.364 179.411 292.21 179.257C292.056 179.103 291.873 178.981 291.671 178.899C291.469 178.818 291.252 178.777 291.034 178.781C290.821 178.784 290.61 178.829 290.414 178.914C290.218 178.999 290.04 179.122 289.891 179.275C289.743 179.428 289.626 179.61 289.547 179.808C289.468 180.007 289.429 180.219 289.433 180.433V185.313H240.627V136.507ZM291.034 142.99C290.821 142.993 290.61 143.038 290.414 143.123C290.218 143.208 290.04 143.331 289.891 143.484C289.743 143.637 289.626 143.819 289.547 144.017C289.468 144.216 289.429 144.428 289.433 144.642V147.896C289.43 148.111 289.47 148.325 289.55 148.525C289.63 148.725 289.75 148.907 289.901 149.061C290.052 149.214 290.233 149.336 290.432 149.419C290.631 149.503 290.844 149.546 291.06 149.546C291.275 149.546 291.489 149.503 291.688 149.419C291.887 149.336 292.067 149.214 292.218 149.061C292.37 148.907 292.489 148.725 292.569 148.525C292.65 148.325 292.69 148.111 292.687 147.896V144.642C292.69 144.424 292.65 144.207 292.568 144.005C292.486 143.803 292.364 143.62 292.21 143.466C292.056 143.312 291.873 143.19 291.671 143.108C291.469 143.027 291.252 142.986 291.034 142.99ZM186.915 144.616C186.701 144.62 186.49 144.665 186.294 144.75C186.098 144.835 185.921 144.957 185.772 145.111C185.623 145.264 185.506 145.445 185.428 145.644C185.349 145.843 185.31 146.055 185.313 146.269V149.522C185.31 149.738 185.35 149.952 185.431 150.152C185.511 150.352 185.63 150.534 185.782 150.688C185.933 150.841 186.113 150.963 186.312 151.046C186.511 151.13 186.725 151.172 186.94 151.172C187.156 151.172 187.369 151.13 187.568 151.046C187.767 150.963 187.948 150.841 188.099 150.688C188.25 150.534 188.37 150.352 188.45 150.152C188.53 149.952 188.57 149.738 188.567 149.522V146.269C188.571 146.051 188.53 145.834 188.448 145.632C188.367 145.43 188.245 145.247 188.091 145.093C187.937 144.939 187.753 144.817 187.551 144.735C187.349 144.653 187.133 144.613 186.915 144.616ZM291.034 156.004C290.821 156.008 290.61 156.053 290.414 156.138C290.218 156.223 290.04 156.345 289.891 156.499C289.743 156.652 289.626 156.834 289.547 157.032C289.468 157.231 289.429 157.443 289.433 157.657V170.672C289.43 170.887 289.47 171.101 289.55 171.301C289.63 171.501 289.75 171.683 289.901 171.837C290.052 171.99 290.233 172.112 290.432 172.196C290.631 172.279 290.844 172.322 291.06 172.322C291.275 172.322 291.489 172.279 291.688 172.196C291.887 172.112 292.067 171.99 292.218 171.837C292.37 171.683 292.489 171.501 292.569 171.301C292.65 171.101 292.69 170.887 292.687 170.672V157.657C292.69 157.439 292.65 157.222 292.568 157.02C292.486 156.818 292.364 156.635 292.21 156.481C292.056 156.327 291.873 156.205 291.671 156.123C291.469 156.041 291.252 156.001 291.034 156.004ZM186.915 157.631C186.701 157.635 186.49 157.68 186.294 157.765C186.098 157.85 185.921 157.972 185.772 158.126C185.623 158.279 185.506 158.46 185.428 158.659C185.349 158.858 185.31 159.07 185.313 159.284V177.179C185.31 177.395 185.35 177.609 185.431 177.809C185.511 178.009 185.63 178.191 185.782 178.344C185.933 178.498 186.113 178.62 186.312 178.703C186.511 178.786 186.725 178.829 186.94 178.829C187.156 178.829 187.369 178.786 187.568 178.703C187.767 178.62 187.948 178.498 188.099 178.344C188.25 178.191 188.37 178.009 188.45 177.809C188.53 177.609 188.57 177.395 188.567 177.179V159.284C188.571 159.066 188.53 158.849 188.448 158.647C188.367 158.445 188.245 158.262 188.091 158.108C187.937 157.954 187.753 157.832 187.551 157.75C187.349 157.668 187.133 157.628 186.915 157.631ZM136.507 188.567H237.373V237.373H188.567V196.695C188.57 196.478 188.529 196.262 188.446 196.061C188.364 195.86 188.243 195.677 188.089 195.523C187.934 195.37 187.751 195.249 187.55 195.167C187.348 195.086 187.132 195.046 186.915 195.049C186.485 195.056 186.074 195.233 185.774 195.541C185.474 195.85 185.308 196.265 185.313 196.695V237.373H136.507V188.567ZM240.627 188.567H289.433V237.373H240.627V188.567ZM292.687 188.567H341.493V237.373H292.687V188.567ZM136.507 240.627H185.313V341.493H152.776C143.751 341.493 136.507 334.249 136.507 325.224V240.627ZM188.567 240.627H237.373V289.433H196.701C196.486 289.43 196.272 289.47 196.072 289.55C195.872 289.63 195.69 289.75 195.536 289.901C195.383 290.052 195.261 290.233 195.178 290.432C195.094 290.631 195.051 290.844 195.051 291.06C195.051 291.275 195.094 291.489 195.178 291.688C195.261 291.887 195.383 292.067 195.536 292.218C195.69 292.37 195.872 292.489 196.072 292.569C196.272 292.65 196.486 292.69 196.701 292.687H237.373V341.493H188.567V240.627ZM240.627 240.627H289.433V289.433H240.627V240.627ZM292.687 240.627H341.493V289.433H292.687V240.627ZM144.642 289.433C144.426 289.43 144.212 289.47 144.012 289.55C143.812 289.63 143.63 289.75 143.476 289.901C143.323 290.052 143.201 290.233 143.118 290.432C143.035 290.631 142.992 290.844 142.992 291.06C142.992 291.275 143.035 291.489 143.118 291.688C143.201 291.887 143.323 292.067 143.476 292.218C143.63 292.37 143.812 292.489 144.012 292.569C144.212 292.65 144.426 292.69 144.642 292.687H147.896C148.111 292.69 148.325 292.65 148.525 292.569C148.725 292.489 148.907 292.37 149.061 292.218C149.214 292.067 149.336 291.887 149.419 291.688C149.503 291.489 149.546 291.275 149.546 291.06C149.546 290.844 149.503 290.631 149.419 290.432C149.336 290.233 149.214 290.052 149.061 289.901C148.907 289.75 148.725 289.63 148.525 289.55C148.325 289.47 148.111 289.43 147.896 289.433H144.642ZM157.657 289.433C157.441 289.43 157.227 289.47 157.027 289.55C156.827 289.63 156.645 289.75 156.491 289.901C156.338 290.052 156.216 290.233 156.133 290.432C156.05 290.631 156.007 290.844 156.007 291.06C156.007 291.275 156.05 291.489 156.133 291.688C156.216 291.887 156.338 292.067 156.491 292.218C156.645 292.37 156.827 292.489 157.027 292.569C157.227 292.65 157.441 292.69 157.657 292.687H177.179C177.395 292.69 177.609 292.65 177.809 292.569C178.009 292.489 178.191 292.37 178.344 292.218C178.498 292.067 178.62 291.887 178.703 291.688C178.786 291.489 178.829 291.275 178.829 291.06C178.829 290.844 178.786 290.631 178.703 290.432C178.62 290.233 178.498 290.052 178.344 289.901C178.191 289.75 178.009 289.63 177.809 289.55C177.609 289.47 177.395 289.43 177.179 289.433H157.657ZM240.627 292.687H289.433V341.493H240.627V292.687ZM292.687 292.687H341.493V325.224C341.493 334.249 334.249 341.493 325.224 341.493H292.687V292.687Z" fill="url(#paint0_linear_69_68)"/>
<defs>
<linearGradient id="paint0_linear_69_68" x1="130" y1="264.154" x2="348" y2="264.154" gradientUnits="userSpaceOnUse">
<stop stop-color="#F9A93F"/>
<stop offset="1" stop-color="#A86B28"/>
</linearGradient>
</defs>
</svg>
