<svg width="478" height="478" viewBox="0 0 478 478" fill="none" xmlns="http://www.w3.org/2000/svg">
<rect x="49" y="49" width="380" height="380" rx="190" fill="#FAAA3F" fill-opacity="0.09"/>
<rect x="49" y="49" width="380" height="380" rx="190" stroke="#FAAA3F" stroke-opacity="0.12" stroke-width="96.6667"/>
<path d="M239 130C178.894 130 130 178.899 130 239.003C130 299.107 178.894 348 239 348C299.103 348 348 299.107 348 239.003C348 178.899 299.106 130 239 130ZM237.515 136.087V187.48C237.512 187.681 237.55 187.88 237.624 188.066C237.699 188.252 237.81 188.422 237.951 188.565C238.092 188.708 238.26 188.821 238.445 188.898C238.63 188.976 238.829 189.016 239.03 189.016C239.23 189.016 239.429 188.976 239.614 188.898C239.799 188.821 239.967 188.708 240.108 188.565C240.249 188.422 240.36 188.252 240.435 188.066C240.51 187.88 240.547 187.681 240.544 187.48V136.093C295.572 136.91 340.254 181.1 341.866 235.939H261.744C261.543 235.936 261.344 235.973 261.158 236.048C260.972 236.123 260.802 236.234 260.659 236.375C260.516 236.516 260.403 236.683 260.326 236.869C260.248 237.054 260.208 237.252 260.208 237.453C260.208 237.654 260.248 237.853 260.326 238.038C260.403 238.223 260.516 238.391 260.659 238.532C260.802 238.672 260.972 238.784 261.158 238.858C261.344 238.933 261.543 238.97 261.744 238.967H341.943C341.943 238.977 341.943 238.987 341.943 238.997C341.943 266.436 331.132 291.38 313.573 309.852L267.358 263.641C267.216 263.495 267.047 263.379 266.86 263.299C266.673 263.22 266.472 263.179 266.269 263.179C265.968 263.179 265.673 263.269 265.423 263.438C265.173 263.607 264.979 263.846 264.866 264.126C264.753 264.405 264.725 264.712 264.788 265.007C264.85 265.302 265 265.572 265.216 265.782L311.462 312.034C292.845 330.507 267.237 341.943 239 341.943C182.235 341.943 136.057 295.764 136.057 238.997C136.057 182.728 181.435 136.887 237.515 136.087ZM225.17 149.16C224.231 149.302 223.305 149.493 222.372 149.669V149.651C222.287 149.666 222.203 149.695 222.118 149.71C219.877 150.131 217.655 150.605 215.493 151.183C215.42 151.201 215.364 151.25 215.298 151.278C198.283 155.893 182.783 165.41 170.88 178.903C170.329 179.526 170.392 180.484 171.016 181.038C171.643 181.592 172.597 181.535 173.152 180.908C186.078 166.255 203.389 156.445 222.236 152.762C223.363 152.544 224.493 152.32 225.632 152.147C226.455 152.02 227.025 151.247 226.897 150.42C226.767 149.596 226.018 149.033 225.17 149.16ZM166.887 184.463C166.504 184.521 166.142 184.724 165.894 185.06C165.146 186.075 164.408 187.103 163.705 188.148C163.239 188.839 163.42 189.785 164.113 190.248C164.807 190.718 165.747 190.534 166.213 189.84C166.891 188.829 167.607 187.843 168.331 186.865C168.531 186.592 168.626 186.277 168.626 185.966C168.626 185.502 168.414 185.047 168.011 184.747C167.677 184.499 167.271 184.405 166.887 184.463ZM161.41 193.549C160.824 193.481 160.23 193.759 159.919 194.306C158.765 196.345 157.691 198.417 156.731 200.464C156.377 201.221 156.701 202.127 157.459 202.481C158.216 202.836 159.121 202.511 159.476 201.754C160.402 199.776 161.434 197.769 162.552 195.797C162.682 195.561 162.747 195.303 162.747 195.052C162.747 194.525 162.474 194.011 161.984 193.732C161.801 193.629 161.605 193.572 161.41 193.549ZM238.509 196.566C237.749 196.566 237.11 196.792 236.598 197.246C236.081 197.694 235.824 198.189 235.824 198.737V201.831C233.337 202.037 231.023 202.5 228.885 203.221C226.744 203.942 224.724 204.987 222.828 206.362C220.929 207.737 219.429 209.616 218.326 211.987C217.221 214.362 216.67 217.099 216.67 220.21C216.67 222.763 217.085 225.063 217.912 227.101C218.742 229.136 219.654 230.761 220.657 231.97C221.656 233.181 223.176 234.367 225.212 235.542C227.247 236.721 228.922 237.551 230.234 238.033L235.824 240.103V267.669C233.107 267.53 230.666 267.03 228.506 266.166C226.344 265.303 224.77 264.371 223.78 263.368C222.79 262.366 221.818 261.451 220.864 260.624C219.907 259.794 219.155 259.376 218.61 259.376C217.647 259.376 216.774 259.896 215.984 260.931C215.193 261.97 214.801 263.038 214.801 264.143C214.801 266.554 216.821 269.035 220.864 271.579C224.901 274.126 229.887 275.431 235.824 275.495V279.086C235.824 279.667 236.081 280.196 236.598 280.665C237.116 281.135 237.749 281.369 238.509 281.369C239.197 281.369 239.821 281.135 240.372 280.665C240.924 280.193 241.2 279.67 241.2 279.092V275.187C246.758 274.439 251.168 272.335 254.427 268.87C257.686 265.408 259.319 260.687 259.319 254.708C259.319 251.325 258.819 248.37 257.822 245.847C256.829 243.327 255.354 241.253 253.398 239.63C251.438 238.01 249.588 236.733 247.837 235.797C246.087 234.867 243.878 233.915 241.2 232.946V209.343C244.168 209.482 246.926 210.152 249.47 211.354C252.014 212.557 253.455 213.153 253.8 213.153C254.914 213.153 255.818 212.608 256.515 211.508C257.212 210.412 257.562 209.378 257.562 208.414C257.562 206.494 255.87 204.932 252.487 203.729C249.104 202.527 245.344 201.827 241.2 201.618V198.731C241.2 198.183 240.924 197.689 240.372 197.24C239.821 196.792 239.2 196.566 238.509 196.566ZM154.341 208.687C153.752 208.73 153.218 209.117 153.016 209.71C149.803 219.162 148.172 229.003 148.172 238.967C148.172 289.068 188.93 329.828 239.03 329.828C255.581 329.828 271.09 325.343 284.47 317.577C284.561 317.547 284.658 317.555 284.742 317.506C285.148 317.27 285.535 317.003 285.937 316.761C285.949 316.755 285.961 316.743 285.973 316.737C288.905 314.962 291.769 313.042 294.473 310.958C295.133 310.449 295.254 309.497 294.745 308.834C294.233 308.171 293.276 308.053 292.622 308.562C290.405 310.27 288.061 311.848 285.677 313.348C272.148 321.861 256.159 326.799 239.03 326.799C190.602 326.799 151.2 287.399 151.2 238.967C151.2 229.336 152.778 219.818 155.885 210.68C156.149 209.874 155.732 209.027 154.939 208.758C154.74 208.691 154.538 208.672 154.341 208.687ZM236.232 209.485V231.189C232.4 229.805 229.547 228.305 227.666 226.681C225.786 225.061 224.845 222.622 224.845 219.376C224.845 213.536 228.636 210.239 236.232 209.485ZM240.786 242.067C244.1 243.448 246.651 245.143 248.447 247.148C250.243 249.153 251.138 251.947 251.138 255.542C251.138 262.381 247.689 266.354 240.786 267.456V242.067Z" fill="url(#paint0_linear_69_72)"/>
<defs>
<linearGradient id="paint0_linear_69_72" x1="130" y1="264.154" x2="348" y2="264.154" gradientUnits="userSpaceOnUse">
<stop stop-color="#F9A93F"/>
<stop offset="1" stop-color="#A86B28"/>
</linearGradient>
</defs>
</svg>
