<svg width="478" height="478" viewBox="0 0 478 478" fill="none" xmlns="http://www.w3.org/2000/svg">
<rect x="49" y="49" width="380" height="380" rx="190" fill="#FAAA3F" fill-opacity="0.09"/>
<rect x="49" y="49" width="380" height="380" rx="190" stroke="#FAAA3F" stroke-opacity="0.12" stroke-width="96.6667"/>
<path d="M251.86 153.222C249.065 153.222 246.792 155.406 246.598 158.154L229.742 182.376C228.979 182.389 228.262 182.571 227.61 182.873L193.525 160.638C193.255 157.967 191.02 155.872 188.278 155.872C185.357 155.872 182.98 158.249 182.98 161.172C182.98 161.72 183.091 162.236 183.244 162.735L140.224 215.065C139.294 216.194 139.457 217.864 140.586 218.792C141.081 219.197 141.679 219.397 142.272 219.397C143.038 219.397 143.797 219.068 144.321 218.429L187.145 166.342C187.514 166.424 187.894 166.471 188.289 166.471C189.412 166.471 190.447 166.113 191.305 165.514L224.583 187.226C224.57 187.374 224.537 187.517 224.537 187.671C224.537 190.594 226.913 192.971 229.835 192.971C232.757 192.971 235.133 190.594 235.133 187.671C235.133 186.69 234.849 185.782 234.383 184.995L249.511 163.247C250.221 163.602 251.018 163.821 251.865 163.821C252.941 163.821 253.936 163.495 254.773 162.942L273.119 176.455C273.09 176.657 273.052 176.859 273.052 177.071C273.052 179.994 275.428 182.371 278.35 182.371C281.272 182.371 283.648 179.994 283.648 177.071C283.648 177.058 283.643 177.048 283.643 177.035L302.517 165.079L298.958 172.791C298.343 174.118 298.924 175.698 300.251 176.31C300.611 176.475 300.985 176.553 301.358 176.553C302.36 176.553 303.319 175.981 303.764 175.011L310.33 160.783C310.582 160.243 310.591 159.668 310.475 159.127C310.578 158.693 310.605 158.232 310.475 157.781C310.146 156.647 309.105 155.872 307.929 155.872H291.595C290.133 155.872 288.946 157.056 288.946 158.522C288.946 159.987 290.133 161.172 291.595 161.172H298.792L280.942 172.475C280.174 172.038 279.296 171.771 278.35 171.771C277.614 171.771 276.914 171.923 276.275 172.196L257.117 158.087C256.891 155.371 254.636 153.222 251.86 153.222ZM251.86 155.872C253.32 155.872 254.509 157.059 254.509 158.522C254.509 159.984 253.32 161.172 251.86 161.172C250.4 161.172 249.211 159.984 249.211 158.522C249.211 157.059 250.4 155.872 251.86 155.872ZM188.284 158.522C189.743 158.522 190.933 159.709 190.933 161.172C190.933 162.634 189.743 163.821 188.284 163.821C186.824 163.821 185.635 162.634 185.635 161.172C185.635 159.709 186.824 158.522 188.284 158.522ZM278.35 174.421C279.81 174.421 280.999 175.608 280.999 177.071C280.999 178.534 279.81 179.721 278.35 179.721C276.891 179.721 275.701 178.534 275.701 177.071C275.701 175.608 276.891 174.421 278.35 174.421ZM229.835 185.021C231.294 185.021 232.484 186.208 232.484 187.671C232.484 189.133 231.297 190.321 229.835 190.321C228.375 190.321 227.186 189.133 227.186 187.671C227.186 186.208 228.375 185.021 229.835 185.021ZM184.9 186.605C178.328 186.317 172.219 190.671 170.553 197.297L165.534 217.255C165.176 218.675 166.039 220.111 167.459 220.469C168.863 220.816 170.317 219.969 170.672 218.549L175.685 198.591C176.877 193.851 181.697 190.966 186.442 192.158L336.003 229.774C338.283 230.349 340.211 231.789 341.43 233.827C342.648 235.867 343.001 238.248 342.429 240.529L324.273 312.766C323.081 317.506 318.264 320.397 313.522 319.204L228.391 297.793C226.979 297.429 225.533 298.298 225.178 299.718C224.821 301.138 225.678 302.574 227.098 302.932L312.229 324.349C313.384 324.638 314.541 324.778 315.68 324.778C322.016 324.778 327.798 320.483 329.411 314.065L347.571 241.823C348.491 238.166 347.92 234.364 345.973 231.11C344.028 227.856 340.944 225.557 337.291 224.64L187.735 187.019C186.789 186.781 185.839 186.646 184.9 186.605ZM193.98 204.921C193.469 205.001 193.032 205.374 192.899 205.904C191.59 211.096 186.644 214.354 181.863 213.14C181.156 212.965 180.431 213.395 180.254 214.103L177.429 225.339C170.769 224.804 164.556 224.77 163.113 224.77C159.725 224.77 130 224.955 130 231.394V242.113C130 243.828 132.097 245.098 135.226 246.047C132.46 246.879 130.542 247.97 130.135 249.39C130.058 249.56 130.005 249.745 130.005 249.944V260.663C130.005 261.675 130.732 262.535 131.971 263.261C130.734 263.984 130.005 264.839 130.005 265.843V276.562C130.005 278.274 132.095 279.544 135.215 280.49C132.458 281.32 130.561 282.408 130.145 283.824C130.063 283.996 130.005 284.189 130.005 284.393V295.112C130.005 301.585 159.73 301.773 163.118 301.773C166.339 301.773 193.351 301.601 196.003 296.017C196.713 297.565 197.422 299.014 198.119 300.344C201.78 307.321 203.949 308.791 205.425 308.791C205.7 308.791 205.957 308.738 206.19 308.661L215.452 305.618C215.6 305.645 215.746 305.67 215.876 305.67C216.159 305.67 216.404 305.614 216.595 305.551C220.182 304.303 218.338 293.161 216.14 283.958L305.451 306.42C305.56 306.447 305.663 306.462 305.772 306.462C306.01 306.462 306.245 306.395 306.455 306.27C306.757 306.093 306.975 305.799 307.06 305.458C307.698 302.922 309.207 300.772 311.313 299.407C313.39 298.059 315.796 297.631 318.096 298.217C318.432 298.296 318.798 298.247 319.1 298.067C319.402 297.889 319.62 297.596 319.705 297.254L331.067 252.04C331.151 251.698 331.102 251.338 330.922 251.036C330.742 250.736 330.443 250.515 330.104 250.425C325.323 249.225 322.497 244.02 323.803 238.827C323.98 238.114 323.55 237.4 322.84 237.222L311.313 234.324C310.6 234.152 309.886 234.574 309.709 235.281C309.532 235.991 309.956 236.713 310.666 236.891L320.978 239.484C320.141 245.181 323.159 250.659 328.2 252.599L317.444 295.396C314.835 295.062 312.19 295.679 309.875 297.182C307.565 298.676 305.822 300.903 304.877 303.537L215.42 281.039C214.255 276.497 213.141 272.839 212.818 271.795C208.733 258.615 202.81 244.405 198.787 242.367C197.96 241.953 197.283 242.043 196.862 242.186C196.724 242.233 196.606 242.311 196.484 242.387C196.391 242.361 196.298 242.333 196.2 242.331C196.205 242.259 196.231 242.19 196.231 242.113V231.394C196.231 228.061 188.26 226.404 180.104 225.582L182.52 215.956C187.882 216.637 193.127 213.241 195.082 207.825L289.184 231.493C289.892 231.657 290.608 231.238 290.788 230.53C290.966 229.82 290.536 229.103 289.826 228.926L194.508 204.942C194.329 204.898 194.15 204.894 193.98 204.921ZM163.118 227.42C182.103 227.42 192.124 229.966 193.499 231.394C192.124 232.823 182.103 235.369 163.118 235.369C144.132 235.369 134.112 232.823 132.737 231.394C134.112 229.966 144.132 227.42 163.118 227.42ZM293.598 229.976C293.087 230.057 292.649 230.429 292.516 230.96C292.339 231.67 292.769 232.392 293.479 232.569L295.626 233.113C295.734 233.139 295.843 233.149 295.952 233.149C296.545 233.149 297.084 232.752 297.235 232.15C297.412 231.44 296.982 230.718 296.272 230.54L294.125 229.997C293.947 229.954 293.768 229.949 293.598 229.976ZM216.507 232.73C212.211 232.548 208.198 235.389 207.106 239.727C205.861 244.685 208.878 249.733 213.837 250.984C214.592 251.172 215.346 251.264 216.093 251.264C220.241 251.264 224.033 248.451 225.09 244.251C226.335 239.293 223.318 234.25 218.359 232.999C217.742 232.845 217.121 232.756 216.507 232.73ZM193.592 234.329L193.613 241.968C192.836 243.37 182.797 246.119 163.118 246.119C143.438 246.119 133.401 243.375 132.654 242.113V234.334C140.008 237.89 160.35 238.019 163.118 238.019C165.889 238.019 186.246 237.89 193.592 234.329ZM216.103 235.364C216.636 235.364 217.175 235.428 217.713 235.566C221.252 236.459 223.409 240.069 222.519 243.609C221.629 247.149 218.031 249.316 214.484 248.412C210.945 247.522 208.787 243.914 209.678 240.374C210.432 237.372 213.139 235.364 216.103 235.364ZM246.779 235.39C243.129 235.565 239.558 236.638 236.333 238.568C231.173 241.655 227.523 246.57 226.058 252.402C223.03 264.446 230.36 276.709 242.397 279.735C244.23 280.196 246.087 280.423 247.928 280.423C251.946 280.423 255.901 279.337 259.44 277.219C264.6 274.132 268.25 269.217 269.715 263.385C272.743 251.341 265.413 239.079 253.376 236.052C251.189 235.502 248.969 235.285 246.779 235.39ZM247.85 238.014C249.474 238.014 251.113 238.212 252.729 238.62C257.876 239.915 262.211 243.14 264.934 247.692C267.658 252.248 268.442 257.589 267.149 262.738C265.856 267.887 262.638 272.221 258.084 274.942C253.531 277.666 248.191 278.461 243.044 277.157C237.897 275.864 233.562 272.645 230.839 268.09C228.115 263.534 227.331 258.193 228.624 253.044C229.917 247.895 233.135 243.561 237.689 240.84C240.812 238.972 244.303 238.014 247.85 238.014ZM197.752 244.815C199.786 245.989 205.165 256.06 210.288 272.587C215.472 289.314 216.738 300.794 215.705 302.927C213.668 301.755 208.292 291.679 203.169 275.149C197.985 258.423 196.716 246.951 197.752 244.815ZM195.004 245.415C193.789 253.418 199.807 273.265 200.634 275.936C204.122 287.193 208.954 299.177 212.797 303.708L205.507 306.125C203.934 305.826 198.193 297.147 192.06 278.446C185.928 259.743 185.41 249.351 186.374 248.246L195.004 245.415ZM141.6 247.392C150.344 248.707 161.152 248.774 163.118 248.774C165.033 248.774 175.351 248.715 183.969 247.496C183.494 248.749 183.363 250.549 183.472 252.677C178.521 253.387 171.762 253.919 163.118 253.919C144.132 253.919 134.112 251.372 132.737 249.944C133.434 249.22 136.416 248.214 141.6 247.392ZM132.654 252.884C140.008 256.44 160.35 256.569 163.118 256.569C165.012 256.569 175.135 256.503 183.7 255.327C183.988 257.78 184.495 260.483 185.091 263.168C180.045 264.008 172.771 264.674 163.118 264.674C143.438 264.674 133.401 261.924 132.654 260.663V252.884ZM289.334 256.579C287.781 256.501 286.236 256.878 284.869 257.697C283.047 258.786 281.759 260.519 281.242 262.578C280.175 266.828 282.757 271.157 287.006 272.23C287.652 272.392 288.313 272.473 288.962 272.473C290.379 272.473 291.773 272.087 293.023 271.34C294.846 270.251 296.134 268.521 296.65 266.459C297.718 262.209 295.13 257.88 290.881 256.807C290.368 256.68 289.852 256.605 289.334 256.579ZM288.931 259.219C289.365 259.219 289.805 259.27 290.235 259.379C293.072 260.089 294.797 262.977 294.084 265.807C293.74 267.182 292.878 268.334 291.663 269.063C290.449 269.791 289.028 270.005 287.653 269.658C284.821 268.945 283.096 266.057 283.809 263.225C284.153 261.849 285.009 260.698 286.225 259.969C287.057 259.471 287.988 259.219 288.931 259.219ZM135.381 264.637C144.107 267.218 160.641 267.324 163.118 267.324C165.163 267.324 176.785 267.247 185.691 265.766C185.885 266.563 186.083 267.352 186.281 268.121C181.214 269.048 173.539 269.818 163.118 269.818C147.685 269.818 138.18 268.135 134.424 266.739C133.979 266.357 133.638 265.91 133.399 265.393C133.855 265.155 134.544 264.897 135.381 264.637ZM132.654 268.783C140.008 272.339 160.35 272.468 163.118 272.468C165.264 272.468 177.944 272.386 186.975 270.698C187.873 273.963 188.72 276.7 189.21 278.234C184.444 279.424 175.823 280.573 163.118 280.573C143.438 280.573 133.401 277.823 132.654 276.562V268.783ZM141.6 281.841C150.344 283.156 161.152 283.223 163.118 283.223C165.081 283.223 175.871 283.153 184.61 281.841C187.288 282.26 189.392 282.728 190.876 283.187C191.13 283.91 191.387 284.638 191.647 285.345C187.795 286.731 178.355 288.368 163.118 288.368C144.132 288.368 134.112 285.821 132.737 284.393C133.434 283.669 136.413 282.66 141.6 281.841ZM132.654 287.333C140.008 290.889 160.35 291.018 163.118 291.018C165.77 291.018 184.515 290.887 192.552 287.752C192.899 288.655 193.247 289.548 193.597 290.417L193.613 294.967C192.836 296.368 182.797 299.117 163.118 299.117C143.438 299.117 133.401 296.373 132.654 295.112V287.333Z" fill="url(#paint0_linear_69_96)"/>
<defs>
<linearGradient id="paint0_linear_69_96" x1="130" y1="258.795" x2="348" y2="258.795" gradientUnits="userSpaceOnUse">
<stop stop-color="#F9A93F"/>
<stop offset="1" stop-color="#A86B28"/>
</linearGradient>
</defs>
</svg>
