<svg width="478" height="478" viewBox="0 0 478 478" fill="none" xmlns="http://www.w3.org/2000/svg">
<rect x="49" y="49" width="380" height="380" rx="190" fill="#FAAA3F" fill-opacity="0.09"/>
<rect x="49" y="49" width="380" height="380" rx="190" stroke="#FAAA3F" stroke-opacity="0.12" stroke-width="96.6667"/>
<path d="M174.281 143.811C168.653 143.811 164.062 148.402 164.062 154.03V157.556C154.416 159.193 147.031 167.575 147.031 177.688C147.031 187.8 154.416 196.182 164.062 197.819V200.533C161.534 200.866 159.02 201.372 156.558 202.077C149.027 204.232 142.467 208.597 137.584 214.704C132.701 220.811 130 228.489 130 236.326V267.953C130 274.526 135.349 279.875 141.922 279.875C143.585 279.875 145.168 279.529 146.605 278.917L144.117 333.75C143.944 337.515 145.275 341.068 147.883 343.795C150.477 346.51 153.964 348 157.756 348C163.983 348 169.265 343.809 170.875 338.034C172.485 343.809 177.767 348 184.021 348C187.786 348 191.286 346.51 193.88 343.795C196.475 341.068 197.806 337.515 197.646 333.75L195.517 286.887H337.781C343.41 286.887 348 282.297 348 276.668V269.856C348 265.412 345.153 261.62 341.188 260.223V154.03C341.188 148.402 336.597 143.811 330.969 143.811H174.281ZM174.281 150.624H330.969C332.845 150.624 334.375 152.154 334.375 154.03V259.637H232.188C230.298 259.637 228.781 261.154 228.781 263.043C228.781 264.919 230.298 266.45 232.188 266.45H337.781C339.657 266.45 341.188 267.966 341.188 269.856V276.668C341.188 278.544 339.657 280.075 337.781 280.075H195.198L194.719 269.576V237.31L197.806 239.399C203.993 243.577 211.284 245.812 218.762 245.812H233.372C238.481 245.812 243.258 242.805 245.041 238.029C246.345 234.543 245.879 231.323 244.535 228.622L278.771 197.22C280.154 195.956 280.248 193.801 278.984 192.417C277.719 191.033 275.551 190.94 274.167 192.204L239.878 223.632C238.109 222.607 236.086 221.969 233.891 221.969H223.738C220.864 221.969 218.07 221.064 215.742 219.374L204.898 211.524C199.163 207.359 192.763 204.246 185.95 202.29L185.205 202.077C180.522 200.746 175.692 200.081 170.875 200.081V197.819C180.535 196.196 187.906 187.8 187.906 177.688C187.906 175.093 187.414 172.618 186.522 170.343C187.347 169.717 187.906 168.773 187.906 167.668V160.843C187.906 158.966 186.389 157.436 184.5 157.436C182.611 157.436 181.094 158.966 181.094 160.843V162.492C178.273 159.964 174.76 158.208 170.875 157.556V154.03C170.875 152.154 172.405 150.624 174.281 150.624ZM201.531 157.436C199.642 157.436 198.125 158.966 198.125 160.843V167.668C198.125 169.544 199.642 171.075 201.531 171.075C203.421 171.075 204.938 169.544 204.938 167.668V160.843C204.938 158.966 203.421 157.436 201.531 157.436ZM218.562 157.436C216.673 157.436 215.156 158.966 215.156 160.843V167.668C215.156 169.544 216.673 171.075 218.562 171.075C220.452 171.075 221.969 169.544 221.969 167.668V160.843C221.969 158.966 220.452 157.436 218.562 157.436ZM235.594 157.436C233.704 157.436 232.188 158.966 232.188 160.843V167.668C232.188 169.544 233.704 171.075 235.594 171.075C237.483 171.075 239 169.544 239 167.668V160.843C239 158.966 237.483 157.436 235.594 157.436ZM252.625 157.436C250.736 157.436 249.219 158.966 249.219 160.843V167.668C249.219 169.544 250.736 171.075 252.625 171.075C254.514 171.075 256.031 169.544 256.031 167.668V160.843C256.031 158.966 254.514 157.436 252.625 157.436ZM269.656 157.436C267.767 157.436 266.25 158.966 266.25 160.843V167.668C266.25 169.544 267.767 171.075 269.656 171.075C271.546 171.075 273.062 169.544 273.062 167.668V160.843C273.062 158.966 271.546 157.436 269.656 157.436ZM286.688 157.436C284.798 157.436 283.281 158.966 283.281 160.843V167.668C283.281 169.544 284.798 171.075 286.688 171.075C288.577 171.075 290.094 169.544 290.094 167.668V160.843C290.094 158.966 288.577 157.436 286.688 157.436ZM303.719 157.436C301.829 157.436 300.312 158.966 300.312 160.843V167.668C300.312 169.544 301.829 171.075 303.719 171.075C305.608 171.075 307.125 169.544 307.125 167.668V160.843C307.125 158.966 305.608 157.436 303.719 157.436ZM320.75 157.436C318.861 157.436 317.344 158.966 317.344 160.843V167.668C317.344 169.544 318.861 171.075 320.75 171.075C322.639 171.075 324.156 169.544 324.156 167.668V160.843C324.156 158.966 322.639 157.436 320.75 157.436ZM167.469 163.065C175.532 163.065 182.092 169.624 182.092 177.688C182.092 185.751 175.532 192.31 167.469 192.31C159.406 192.31 152.846 185.751 152.846 177.688C152.846 169.624 159.406 163.065 167.469 163.065ZM170.875 206.893C175.066 206.893 179.258 207.466 183.329 208.636L184.713 209.022C190.328 210.632 195.624 213.214 200.36 216.646L211.75 224.896C215.236 227.411 219.441 228.781 223.738 228.781H233.891C234.01 228.781 234.117 228.808 234.223 228.821L233.292 229.686C231.908 230.95 231.815 233.106 233.079 234.489C233.758 235.221 234.676 235.594 235.594 235.594C236.419 235.594 237.244 235.301 237.896 234.689L238.987 233.704C238.987 233.771 239 233.824 239 233.891C239 236.711 236.711 239 233.891 239H218.775C212.655 239 206.681 237.177 201.624 233.758L193.229 228.089C192.177 227.384 190.833 227.304 189.716 227.903C188.598 228.502 187.906 229.646 187.906 230.91V269.656C187.906 269.709 187.906 269.763 187.906 269.816L190.833 334.056C190.913 335.932 190.248 337.715 188.957 339.072C187.52 340.575 185.538 341.334 183.422 341.161C179.949 340.881 177.355 337.821 177.182 334.362L174.281 276.296C174.188 274.486 172.685 273.062 170.875 273.062C169.065 273.062 167.562 274.486 167.469 276.296L164.581 334.269C164.395 337.728 161.854 340.828 158.394 341.148C156.265 341.347 154.256 340.602 152.806 339.085C151.502 337.728 150.837 335.945 150.917 334.069L153.844 269.656V231.057C153.844 229.18 152.327 227.65 150.438 227.65C148.548 227.65 147.031 229.18 147.031 231.057V267.953C147.031 270.774 144.743 273.062 141.922 273.062C139.101 273.062 136.812 270.774 136.812 267.953V237.19C136.812 230.471 138.901 223.832 143.159 218.642C147.124 213.812 152.393 210.353 158.421 208.636C162.492 207.466 166.684 206.893 170.875 206.893ZM204.938 259.637C203.048 259.637 201.531 261.154 201.531 263.043C201.531 264.919 203.048 266.45 204.938 266.45H218.562C220.452 266.45 221.969 264.919 221.969 263.043C221.969 261.154 220.452 259.637 218.562 259.637H204.938Z" fill="url(#paint0_linear_69_100)"/>
<defs>
<linearGradient id="paint0_linear_69_100" x1="130" y1="269.466" x2="348" y2="269.466" gradientUnits="userSpaceOnUse">
<stop stop-color="#F9A93F"/>
<stop offset="1" stop-color="#A86B28"/>
</linearGradient>
</defs>
</svg>
