<svg width="478" height="478" viewBox="0 0 478 478" fill="none" xmlns="http://www.w3.org/2000/svg">
<rect x="49" y="49" width="380" height="380" rx="190" fill="#FAAA3F" fill-opacity="0.09"/>
<rect x="49" y="49" width="380" height="380" rx="190" stroke="#FAAA3F" stroke-opacity="0.12" stroke-width="96.6667"/>
<path d="M144.286 137C138.266 137 133.357 141.909 133.357 147.929V315.5C133.357 329.559 144.798 341 158.857 341H319.143C333.202 341 344.643 329.559 344.643 315.5V224.429C344.643 216.389 338.111 209.857 330.071 209.857H300.929V147.929C300.929 141.909 296.019 137 290 137H144.286ZM144.286 144.286H290C292.006 144.286 293.643 145.922 293.643 147.929V315.5C293.643 322.771 296.389 329.161 300.957 333.714H158.857C148.811 333.714 140.643 325.546 140.643 315.5V304.571H253.571C255.592 304.571 257.214 302.949 257.214 300.929C257.214 298.908 255.592 297.286 253.571 297.286H140.643V147.929C140.643 145.922 142.279 144.286 144.286 144.286ZM166.143 166.143C164.122 166.143 162.5 167.765 162.5 169.786C162.5 171.806 164.122 173.429 166.143 173.429H224.429C226.449 173.429 228.071 171.806 228.071 169.786C228.071 167.765 226.449 166.143 224.429 166.143H166.143ZM239 166.143C236.979 166.143 235.357 167.765 235.357 169.786C235.357 171.806 236.979 173.429 239 173.429H260.857C262.878 173.429 264.5 171.806 264.5 169.786C264.5 167.765 262.878 166.143 260.857 166.143H239ZM166.143 180.714C164.122 180.714 162.5 182.336 162.5 184.357C162.5 186.378 164.122 188 166.143 188H202.571C204.592 188 206.214 186.378 206.214 184.357C206.214 182.336 204.592 180.714 202.571 180.714H166.143ZM217.143 180.714C215.122 180.714 213.5 182.336 213.5 184.357C213.5 186.378 215.122 188 217.143 188H260.857C262.878 188 264.5 186.378 264.5 184.357C264.5 182.336 262.878 180.714 260.857 180.714H217.143ZM166.143 209.857C164.122 209.857 162.5 211.479 162.5 213.5C162.5 215.521 164.122 217.143 166.143 217.143H202.571C204.592 217.143 206.214 215.521 206.214 213.5C206.214 211.479 204.592 209.857 202.571 209.857H166.143ZM224.429 209.857C222.408 209.857 220.786 211.479 220.786 213.5C220.786 215.521 222.408 217.143 224.429 217.143H260.857C262.878 217.143 264.5 215.521 264.5 213.5C264.5 211.479 262.878 209.857 260.857 209.857H224.429ZM300.929 217.143H317.535C316.268 219.292 315.5 221.768 315.5 224.429V286.357C315.5 288.378 317.122 290 319.143 290C321.164 290 322.786 288.378 322.786 286.357V224.429C322.786 220.416 326.059 217.143 330.071 217.143C334.084 217.143 337.357 220.416 337.357 224.429V315.5C337.357 325.546 329.189 333.714 319.143 333.714C308.584 333.714 300.929 326.059 300.929 315.5V217.143ZM166.143 224.429C164.122 224.429 162.5 226.051 162.5 228.071C162.5 230.092 164.122 231.714 166.143 231.714H202.571C204.592 231.714 206.214 230.092 206.214 228.071C206.214 226.051 204.592 224.429 202.571 224.429H166.143ZM224.429 224.429C222.408 224.429 220.786 226.051 220.786 228.071C220.786 230.092 222.408 231.714 224.429 231.714H260.857C262.878 231.714 264.5 230.092 264.5 228.071C264.5 226.051 262.878 224.429 260.857 224.429H224.429ZM166.143 239C164.122 239 162.5 240.622 162.5 242.643C162.5 244.664 164.122 246.286 166.143 246.286H202.571C204.592 246.286 206.214 244.664 206.214 242.643C206.214 240.622 204.592 239 202.571 239H166.143ZM224.429 239C222.408 239 220.786 240.622 220.786 242.643C220.786 244.664 222.408 246.286 224.429 246.286H260.857C262.878 246.286 264.5 244.664 264.5 242.643C264.5 240.622 262.878 239 260.857 239H224.429ZM166.143 253.571C164.122 253.571 162.5 255.194 162.5 257.214C162.5 259.235 164.122 260.857 166.143 260.857H202.571C204.592 260.857 206.214 259.235 206.214 257.214C206.214 255.194 204.592 253.571 202.571 253.571H166.143ZM224.429 253.571C222.408 253.571 220.786 255.194 220.786 257.214C220.786 259.235 222.408 260.857 224.429 260.857H260.857C262.878 260.857 264.5 259.235 264.5 257.214C264.5 255.194 262.878 253.571 260.857 253.571H224.429ZM166.143 268.143C164.122 268.143 162.5 269.765 162.5 271.786C162.5 273.806 164.122 275.429 166.143 275.429H202.571C204.592 275.429 206.214 273.806 206.214 271.786C206.214 269.765 204.592 268.143 202.571 268.143H166.143ZM268.143 297.286C266.122 297.286 264.5 298.908 264.5 300.929C264.5 302.949 266.122 304.571 268.143 304.571H282.714C284.735 304.571 286.357 302.949 286.357 300.929C286.357 298.908 284.735 297.286 282.714 297.286H268.143ZM155.214 311.857C153.194 311.857 151.571 313.479 151.571 315.5V322.786C151.571 324.806 153.194 326.429 155.214 326.429C157.235 326.429 158.857 324.806 158.857 322.786V315.5C158.857 313.479 157.235 311.857 155.214 311.857ZM173.429 311.857C171.408 311.857 169.786 313.479 169.786 315.5V322.786C169.786 324.806 171.408 326.429 173.429 326.429C175.449 326.429 177.071 324.806 177.071 322.786V315.5C177.071 313.479 175.449 311.857 173.429 311.857ZM191.643 311.857C189.622 311.857 188 313.479 188 315.5V322.786C188 324.806 189.622 326.429 191.643 326.429C193.664 326.429 195.286 324.806 195.286 322.786V315.5C195.286 313.479 193.664 311.857 191.643 311.857ZM209.857 311.857C207.837 311.857 206.214 313.479 206.214 315.5V322.786C206.214 324.806 207.837 326.429 209.857 326.429C211.878 326.429 213.5 324.806 213.5 322.786V315.5C213.5 313.479 211.878 311.857 209.857 311.857ZM228.071 311.857C226.051 311.857 224.429 313.479 224.429 315.5V322.786C224.429 324.806 226.051 326.429 228.071 326.429C230.092 326.429 231.714 324.806 231.714 322.786V315.5C231.714 313.479 230.092 311.857 228.071 311.857ZM246.286 311.857C244.265 311.857 242.643 313.479 242.643 315.5V322.786C242.643 324.806 244.265 326.429 246.286 326.429C248.306 326.429 249.929 324.806 249.929 322.786V315.5C249.929 313.479 248.306 311.857 246.286 311.857ZM264.5 311.857C262.479 311.857 260.857 313.479 260.857 315.5V322.786C260.857 324.806 262.479 326.429 264.5 326.429C266.521 326.429 268.143 324.806 268.143 322.786V315.5C268.143 313.479 266.521 311.857 264.5 311.857ZM282.714 311.857C280.694 311.857 279.071 313.479 279.071 315.5V322.786C279.071 324.806 280.694 326.429 282.714 326.429C284.735 326.429 286.357 324.806 286.357 322.786V315.5C286.357 313.479 284.735 311.857 282.714 311.857Z" fill="url(#paint0_linear_163_37)"/>
<defs>
<linearGradient id="paint0_linear_163_37" x1="133.357" y1="262.538" x2="344.643" y2="262.538" gradientUnits="userSpaceOnUse">
<stop stop-color="#F9A93F"/>
<stop offset="1" stop-color="#A86B28"/>
</linearGradient>
</defs>
</svg>
